<?xml version="1.0" encoding="UTF-8" standalone="no"?>
<!-- <svg
   xmlns:dc="http://purl.org/dc/elements/1.1/"
   xmlns:cc="http://creativecommons.org/ns#"
   xmlns:rdf="http://www.w3.org/1999/02/22-rdf-syntax-ns#"
   xmlns:svg="http://www.w3.org/2000/svg"
   xmlns="http://www.w3.org/2000/svg"
   xml:space="preserve"
   enable-background="new 0 0 512 512"
   viewBox="0 0 512 512"
   height="512px"
   width="512px"
   y="0px"
   x="0px"
   id="NexT"
   version="1.1"><metadata
     id="metadata3390"><rdf:RDF><cc:Work
         rdf:about=""><dc:format>image/svg+xml</dc:format><dc:type
           rdf:resource="http://purl.org/dc/dcmitype/StillImage" /><dc:title></dc:title></cc:Work></rdf:RDF></metadata><defs
     id="defs3388" /><path
     style="fill:#222222;fill-opacity:1"
     id="path3384"
     d="M 256.4,25.8 56.4,141.3 56,371.5 255.6,486.2 455.6,370.7 456,140.5 Z m 92.6,328.8 -18.4,10.7 -18.6,-11 0,0 -112,-142.3 0,142.6 -18.4,10.7 -18.6,-11 0,-197 18.5,-10.6 18.5,10.8 0,0 112,144.5 0,-144.6 18.5,-10.6 18.5,10.8 z" /></svg> -->
<svg t="1570873293273" class="icon" viewBox="0 0 1024 1024" version="1.1" xmlns="http://www.w3.org/2000/svg" p-id="2084" width="512" height="512"><path d="M595.306667 471.210667c0-0.213333-0.128-0.64-0.341334-1.28-1.066667-2.56-1.6-4.053333-1.6-4.48h-0.32l-1.92 5.76c-0.234667 0.426667-3.562667 8.96-10.026666 25.557333h24.192a2291.84 2291.84 0 0 0-9.984-25.557333M458.346667 464.832h-15.466667v24.917333h15.466667c9.877333-0.213333 14.933333-4.48 15.146666-12.8-0.426667-7.850667-5.482667-11.904-15.146666-12.117333" fill="#00C1DE" p-id="2085"></path><path d="M756.693333 322.581333H704v-32.938666h-35.349333v-52.522667h88.085333v85.461333zM704 486.122667h52.736v-143.616h-52.736v143.616z m0 161.450666h52.736v-141.525333h-52.736v141.525333z m52.736 105.024h-88.106667v-45.866666H704V667.52h52.736v85.098667z m-108.096-78.784h22.144v-21.973333h-22.144v21.973333z m0-32.938666h22.144v-21.952h-22.144v21.973333z m0-65.856h22.144v-21.952h-22.144v21.973333z m0-98.773334h22.144v-21.973333h-22.144v21.973333z m0-98.773333h22.144v-21.973333h-22.144v21.973333z m-138.666667-87.829333H648.533333v-52.522667h-138.56v52.522667z m0 462.933333H648.533333v-45.845333h-138.56v45.866666z m-27.434666-78.762667h22.144v-21.973333h-22.144v21.973333z m-135.957334 78.784h143.317334v-45.866666h-143.317334v45.866666z m-30.122666-78.784h22.144v-21.973333h-22.144v21.973333z m10.026666 78.784h-89.792v-85.098666h46.549334v39.253333h43.242666v45.845333z m-89.792-105.024h46.549334v-141.525333h-46.549334v141.525333z m0-161.450666h46.549334v-143.616h-46.549334v143.616z m0-249.002667h89.813334v52.522667h-43.264v32.938666h-46.549334v-85.461333z m79.765334 107.413333h22.144v-21.952h-22.144v21.952z m0 296.341334h22.144v-21.952h-22.144v21.973333z m0-131.712h22.144v-21.952h-22.144v21.973333z m0 32.938666h22.144v-21.973333h-22.144v21.973333z m0 65.856h22.144v-21.973333h-22.144v21.973333z m0-32.938666h22.144v-21.952h-22.144v21.973333z m0-98.773334h22.144v-21.973333h-22.144v21.973333z m0-32.938666h22.144v-21.952h-22.144v21.973333z m0-65.856h22.144v-21.952h-22.144v21.973333z m0 32.938666h22.144v-21.952h-22.144v21.952z m33.216-65.856h22.144v-21.952H349.653333v21.952z m0 329.28h22.144v-21.973333H349.653333v21.973333z m-3.093334-384.170666h143.317334v-52.522667h-143.317334v52.522667z m102.741334 54.890666h22.144v-21.952h-22.144v21.952z m-33.216 329.28h22.144v-21.973333h-22.144v21.973333z m0-329.28h22.144v-21.952h-22.144v21.952z m-33.216 0h22.144v-21.952h-22.144v21.952z m0 329.28h22.144v-21.973333h-22.144v21.973333z m2.325333-180.245333v28.757333h-10.304v-65.493333h46.08v8.32h-35.776v20.437333h31.253333v7.978667h-31.253333z m64.106667 180.245333H471.466667v-21.973333h-22.144v21.973333z m10.325333-176.085333h-16.746667v24.597333h-10.325333v-65.493333h28.053333c14.805333 0.64 22.656 7.253333 23.509334 19.818667-0.213333 13.845333-8.384 20.864-24.490667 21.077333z m22.890667-153.194667h22.144v-21.952h-22.144v21.952z m33.216 329.28h22.144v-21.973333h-22.144v21.973333z m33.216-329.28h22.144v-21.952h-22.144v21.952z m0 329.28h22.144v-21.973333h-22.144v21.973333z m33.237333 0h22.144v-21.973333H582.186667v21.973333z m33.216 0h22.144v-21.973333h-22.144v21.973333z m0-329.28h22.122667v-21.952h-22.144v21.952z m-33.237333 0h22.144v-21.952H582.186667v21.952z m5.077333 112.298667h11.925333l26.410667 65.493333h-10.944l-6.762667-17.578666h-29.333333l-6.762667 17.578666h-10.965333l26.432-65.493333z m-71.509333-112.298667h22.144v-21.952h-22.144v21.952z m8.661333 111.36c15.253333 0.213333 25.258667 6.058667 29.973333 17.557334l-9.664 3.52c-3.221333-8.32-9.984-12.458667-20.309333-12.458667-12.885333 1.28-19.861333 9.685333-20.928 25.237333 0.853333 15.957333 8.256 24.490667 22.229333 25.536 9.237333-0.213333 15.786667-2.858667 19.648-7.978666v-12.778667h-21.589333v-8.32h30.933333v24.298667c-4.501333 8.32-14.165333 12.565333-29.013333 12.778666-20.821333-1.066667-31.786667-12.245333-32.853333-33.536 1.066667-21.525333 11.605333-32.789333 31.573333-33.877333z m124.224-45.504h22.144v-21.952h-22.144v21.952z m0 32.917334h22.144v-21.952h-22.144v21.973333z m0 65.856h22.144v-21.952h-22.144v21.973333z m0 32.938666h22.144v-21.973333h-22.144v21.973333z m0 65.856h22.144v-21.973333h-22.144v21.973333z m0-263.424h22.144V322.56h-22.144v21.952z m238.08 21.44v-64.426666h-64.981333v-64.426667c0-35.605333-29.12-64.426667-65.002667-64.426667h-65.024V108.224h-65.002667v64.426667h-97.493333v-64.426667h-65.002667v64.426667h-97.493333v-64.426667H301.653333v64.426667h-65.002666c-35.904 0-65.002667 28.842667-65.002667 64.426666v64.448H106.666667v64.426667h65.002666v96.661333H106.666667v64.426667h65.002666v96.661333H106.666667v64.426667h65.002666v64.426667c0 35.626667 29.098667 64.448 65.002667 64.448h65.002667v64.426666h65.002666v-64.426666h97.493334v64.426666h65.024v-64.426666h97.493333v64.426666h65.002667v-64.426666h65.024c35.882667 0 65.002667-28.842667 65.002666-64.426667v-64.426667h65.002667v-64.448h-65.002667v-96.64h65.002667v-64.448h-65.002667v-96.64h65.002667z" fill="#00C1DE" p-id="2086"></path></svg>